<svg xmlns="http://www.w3.org/2000/svg" width="45.567" height="142.062" viewBox="0 0 45.567 142.062">
  <path id="mivi-logo.b54ad5ef1fe59e25b9df245442e610be" d="M.079,21.443l10.643,8.411V45.567H0ZM105.09,45.412l2.752-6.872.014.029L123.3.058h-.024L111.43,0H111.4q-3.377,8.474-6.758,16.922l-2.738,6.829.014.029-2.766,6.944C95.093,20.463,91.022,10.248,86.906,0L75.051.058,93.274,45.567Zm-48.8.155H67.01V0H56.289Zm75.051,0h10.722V0H131.34ZM24,19.7,48.247,0V15.2c-8.111,6.6-16.1,13.048-24.213,19.647Q12.052,25.035,0,15.287V.129Zm24.251,1.741V45.567H37.526v-15.6Q42.9,25.718,48.247,21.443Z" transform="translate(0 142.062) rotate(-90)" fill="lime" fill-rule="evenodd"/>
</svg>
